<svg width="56" height="56" viewBox="0 0 56 56" fill="none" xmlns="http://www.w3.org/2000/svg">
<rect width="56" height="56" rx="16" fill="#2D5A27" fill-opacity="0.1"/>
<path d="M19.8677 40.5V35.125C18.6802 34.0417 17.7583 32.776 17.1021 31.3281C16.4458 29.8802 16.1177 28.3542 16.1177 26.75C16.1177 23.625 17.2114 20.9688 19.3989 18.7812C21.5864 16.5938 24.2427 15.5 27.3677 15.5C29.9718 15.5 32.2791 16.2656 34.2896 17.7969C36.3 19.3281 37.6073 21.3229 38.2114 23.7812L39.8364 30.1875C39.9406 30.5833 39.8677 30.9427 39.6177 31.2656C39.3677 31.5885 39.0343 31.75 38.6177 31.75H36.1177V35.5C36.1177 36.1875 35.8729 36.776 35.3833 37.2656C34.8937 37.7552 34.3052 38 33.6177 38H31.1177V40.5H28.6177V35.5H33.6177V29.25H36.9927L35.8052 24.4062C35.326 22.5104 34.3052 20.9688 32.7427 19.7812C31.1802 18.5938 29.3885 18 27.3677 18C24.951 18 22.8885 18.8438 21.1802 20.5312C19.4718 22.2188 18.6177 24.2708 18.6177 26.6875C18.6177 27.9375 18.8729 29.125 19.3833 30.25C19.8937 31.375 20.6177 32.375 21.5552 33.25L22.3677 34V40.5H19.8677ZM26.1177 31.75H28.6177L28.8052 30.1875C28.9718 30.125 29.1229 30.0521 29.2583 29.9688C29.3937 29.8854 29.5135 29.7917 29.6177 29.6875L31.0552 30.3125L32.3052 28.1875L31.0552 27.25C31.0968 27.0833 31.1177 26.9167 31.1177 26.75C31.1177 26.5833 31.0968 26.4167 31.0552 26.25L32.3052 25.3125L31.0552 23.1875L29.6177 23.8125C29.5135 23.7083 29.3937 23.6146 29.2583 23.5312C29.1229 23.4479 28.9718 23.375 28.8052 23.3125L28.6177 21.75H26.1177L25.9302 23.3125C25.7635 23.375 25.6125 23.4479 25.4771 23.5312C25.3416 23.6146 25.2218 23.7083 25.1177 23.8125L23.6802 23.1875L22.4302 25.3125L23.6802 26.25C23.6385 26.4167 23.6177 26.5833 23.6177 26.75C23.6177 26.9167 23.6385 27.0833 23.6802 27.25L22.4302 28.1875L23.6802 30.3125L25.1177 29.6875C25.2218 29.7917 25.3416 29.8854 25.4771 29.9688C25.6125 30.0521 25.7635 30.125 25.9302 30.1875L26.1177 31.75ZM27.3677 28.625C26.8468 28.625 26.4041 28.4427 26.0396 28.0781C25.675 27.7135 25.4927 27.2708 25.4927 26.75C25.4927 26.2292 25.675 25.7865 26.0396 25.4219C26.4041 25.0573 26.8468 24.875 27.3677 24.875C27.8885 24.875 28.3312 25.0573 28.6958 25.4219C29.0604 25.7865 29.2427 26.2292 29.2427 26.75C29.2427 27.2708 29.0604 27.7135 28.6958 28.0781C28.3312 28.4427 27.8885 28.625 27.3677 28.625Z" fill="#154212"/>
</svg>
