<svg width="56" height="56" viewBox="0 0 56 56" fill="none" xmlns="http://www.w3.org/2000/svg">
<rect width="56" height="56" rx="16" fill="#C2F363"/>
<path d="M26.0615 32.375C26.5615 32.875 27.2074 33.1198 27.999 33.1094C28.7907 33.099 29.374 32.8125 29.749 32.25L36.749 21.75L26.249 28.75C25.6865 29.125 25.3896 29.6979 25.3584 30.4688C25.3271 31.2396 25.5615 31.875 26.0615 32.375ZM27.999 18C29.2282 18 30.4105 18.1719 31.5459 18.5156C32.6813 18.8594 33.749 19.375 34.749 20.0625L32.374 21.5625C31.6865 21.2083 30.973 20.9427 30.2334 20.7656C29.4938 20.5885 28.749 20.5 27.999 20.5C25.2282 20.5 22.8688 21.474 20.9209 23.4219C18.973 25.3698 17.999 27.7292 17.999 30.5C17.999 31.375 18.1188 32.2396 18.3584 33.0938C18.598 33.9479 18.9365 34.75 19.374 35.5H36.624C37.1032 34.7083 37.4521 33.8854 37.6709 33.0312C37.8896 32.1771 37.999 31.2917 37.999 30.375C37.999 29.625 37.9105 28.8958 37.7334 28.1875C37.5563 27.4792 37.2907 26.7917 36.9365 26.125L38.4365 23.75C39.0615 24.7292 39.5563 25.7708 39.9209 26.875C40.2855 27.9792 40.4782 29.125 40.499 30.3125C40.5199 31.5 40.3844 32.6354 40.0928 33.7188C39.8011 34.8021 39.374 35.8333 38.8115 36.8125C38.5824 37.1875 38.2699 37.4792 37.874 37.6875C37.4782 37.8958 37.0615 38 36.624 38H19.374C18.9365 38 18.5199 37.8958 18.124 37.6875C17.7282 37.4792 17.4157 37.1875 17.1865 36.8125C16.6449 35.875 16.2282 34.8802 15.9365 33.8281C15.6449 32.776 15.499 31.6667 15.499 30.5C15.499 28.7708 15.8271 27.151 16.4834 25.6406C17.1396 24.1302 18.0355 22.8073 19.1709 21.6719C20.3063 20.5365 21.6344 19.6406 23.1553 18.9844C24.6761 18.3281 26.2907 18 27.999 18Z" fill="#4A6800"/>
</svg>
